<?xml version="1.0" encoding="utf-8"?>
<!-- Generator: Adobe Illustrator 26.4.1, SVG Export Plug-In . SVG Version: 6.00 Build 0)  -->
<svg version="1.1" id="Layer_1" xmlns="http://www.w3.org/2000/svg" xmlns:xlink="http://www.w3.org/1999/xlink" x="0px" y="0px"
	 viewBox="0 0 334.3 462.9" style="enable-background:new 0 0 334.3 462.9;" xml:space="preserve">
<style type="text/css">
	.st0{fill:#4202BE;}
</style>
<g>
	<path class="st0" d="M167.2,147.6c-40.2,0-73-32.7-73-73c0-40.2,32.7-73,73-73s73,32.7,73,73C240.1,114.9,207.4,147.6,167.2,147.6z
		 M167.2,11.9c-34.6,0-62.8,28.2-62.8,62.8s28.2,62.8,62.8,62.8S230,109.3,230,74.7S201.8,11.9,167.2,11.9z"/>
	<path class="st0" d="M237.8,461.2H96.6c-18,0-33.1-12.9-36.1-30.6L39.4,304.9c-1.8-10.6,1.2-21.5,8.2-29.7c7-8.2,17.2-13,27.9-13
		h183.3c10.8,0,21,4.7,27.9,13c7,8.2,10,19.1,8.2,29.7l-21.1,125.7C270.9,448.3,255.7,461.2,237.8,461.2L237.8,461.2z M75.5,272.4
		c-7.8,0-15.1,3.4-20.2,9.4c-5,5.9-7.2,13.8-5.9,21.5l21.1,125.7c2.1,12.8,13.1,22.1,26.1,22.1h141.2c13,0,23.9-9.3,26.1-22.1
		l21.1-125.7c1.3-7.7-0.9-15.5-5.9-21.5c-5-5.9-12.4-9.4-20.2-9.4L75.5,272.4z"/>
	<path class="st0" d="M291.9,385.2h-14.7c-2.8,0-5.1-2.3-5.1-5.1s2.3-5.1,5.1-5.1h14.7c16.9,0,30.7-13.8,30.7-30.7v-86.4
		c0-21.9-12.9-43.3-36.5-60.2c-22.7-16.3-51-25-81.8-25l-74.2,0c-30.8,0-59.1,8.6-81.8,25c-23.5,16.9-36.5,38.3-36.5,60.2v86.4
		c0,16.9,13.8,30.7,30.7,30.7h14.7c2.8,0,5.1,2.3,5.1,5.1s-2.3,5.1-5.1,5.1H42.5c-22.5,0-40.9-18.3-40.9-40.9v-86.4
		c0-25.3,14.5-49.6,40.7-68.4c24.5-17.6,54.8-26.9,87.7-26.9l74.2,0c32.9,0,63.3,9.3,87.7,26.9c26.3,18.9,40.7,43.2,40.7,68.4v86.4
		C332.7,366.8,314.4,385.2,291.9,385.2L291.9,385.2z"/>
	<path class="st0" d="M304.3,461.2H30c-2.8,0-5.1-2.3-5.1-5.1s2.3-5.1,5.1-5.1h274.3c2.8,0,5.1,2.3,5.1,5.1
		C309.4,458.9,307.1,461.2,304.3,461.2z"/>
</g>
</svg>
